<svg width="200" height="200" viewBox="0 0 1024 1024" xmlns="http://www.w3.org/2000/svg" xmlns:xlink="http://www.w3.org/1999/xlink" class="icon" overflow="hidden"><style>
.MsftOfcThm_Accent1_Fill_v2 {
 fill:#5B9BD5; 
}
</style>
<defs></defs><defs></defs><path d="M896 160 896 266.667C896 284.373 881.707 298.667 864 298.667 846.293 298.667 832 284.373 832 266.667L832 237.227 609.28 459.947C603.093 466.24 594.88 469.333 586.667 469.333 578.453 469.333 570.24 466.24 564.053 459.947L394.667 290.56 182.613 502.613C176.427 508.907 168.213 512 160 512 151.787 512 143.573 508.907 137.387 502.613 124.909 490.12 124.909 469.88 137.387 457.387L372.053 222.72C384.547 210.242 404.786 210.242 417.28 222.72L586.667 392.107 786.773 192 757.333 192C739.627 192 725.333 177.707 725.333 160 725.333 142.293 739.627 128 757.333 128L864 128C866.027 128 868.053 128.213 870.08 128.64 870.827 128.747 871.573 128.853 872.32 129.173 874.667 129.707 876.907 130.56 878.933 131.733 879.787 132.16 880.747 132.693 881.6 133.333 882.56 133.867 883.413 134.507 884.16 135.253 885.867 136.533 887.467 138.133 888.747 139.84 889.493 140.587 890.133 141.44 890.667 142.4 891.307 143.253 891.84 144.213 892.267 145.067 893.44 147.093 894.293 149.333 894.827 151.68 895.147 152.427 895.253 153.173 895.36 153.92 895.787 155.947 896 157.973 896 160M224 896C206.327 896 192 881.673 192 864L192 629.333C192 611.66 206.327 597.333 224 597.333 241.673 597.333 256 611.66 256 629.333L256 864C256 881.673 241.673 896 224 896" class="MsftOfcThm_Accent1_Fill_v2" stroke="none" stroke-width="1" stroke-linecap="butt" stroke-linejoin="miter" stroke-miterlimit="4" fill="#5B9BD5" fill-opacity="1"/><path d="M416 896C398.327 896 384 881.673 384 864L384 480C384 462.327 398.327 448 416 448 433.673 448 448 462.327 448 480L448 864C448 881.673 433.673 896 416 896M608 896C590.327 896 576 881.673 576 864L576 586.667C576 568.994 590.327 554.667 608 554.667 625.673 554.667 640 568.994 640 586.667L640 864C640 881.673 625.673 896 608 896M800 896C782.327 896 768 881.673 768 864L768 416C768 398.327 782.327 384 800 384 817.673 384 832 398.327 832 416L832 864C832 881.673 817.673 896 800 896" class="MsftOfcThm_Accent1_Fill_v2" stroke="none" stroke-width="1" stroke-linecap="butt" stroke-linejoin="miter" stroke-miterlimit="4" fill="#5B9BD5" fill-opacity="1"/></svg>