<svg width="42" height="42" viewBox="0 0 42 42" xmlns="http://www.w3.org/2000/svg" xmlns:xlink="http://www.w3.org/1999/xlink" fill="none" overflow="hidden"><style>
.MsftOfcThm_Accent1_Fill_v2 {
 fill:#5B9BD5; 
}
</style>
<defs><linearGradient x1="25.57" y1="28.36" x2="34.57" y2="28.36" gradientUnits="userSpaceOnUse" spreadMethod="pad" id="paint0_linear_4_8"><stop offset="0" stop-color="#0098FA" stop-opacity="1"/><stop offset="1" stop-color="#00F8C1" stop-opacity="1"/></linearGradient></defs><defs><rect x="0" y="0" width="37.07" height="34.36" class="MsftOfcThm_Accent1_Fill_v2" stroke="none" stroke-width="1" stroke-linecap="butt" stroke-linejoin="miter" stroke-miterlimit="4" fill="#5B9BD5" fill-opacity="1" transform="translate(3 4)"/></defs><g><path d="M29.24 33.99 29.24 31.55 25.67 31.55 25.67 29.9 29.24 29.9 29.24 28.93 25.67 28.93 25.67 27.29 28.98 27.29 25.57 23.97 26.64 22.72 30.07 26.06 33.49 22.72 34.57 23.97 31.16 27.29 34.46 27.29 34.46 28.93 30.89 28.93 30.89 29.9 34.46 29.9 34.46 31.55 30.89 31.55 30.89 33.99 29.24 33.99Z" class="MsftOfcThm_Accent1_Fill_v2" stroke="none" stroke-width="1" stroke-linecap="butt" stroke-linejoin="miter" stroke-miterlimit="4" fill="#5B9BD5" fill-opacity="1"/><path d="M15.46 21.42 12.15 18.52 6.28 18.52 6.28 21.69 10.96 21.69 16.09 26.18 23.06 15.73 24.31 17.92 24.46 17.92C25.35 17.44 26.32 17.08 27.34 16.84L23.26 9.71 15.45 21.42 15.46 21.42Z" class="MsftOfcThm_Accent1_Fill_v2" stroke="none" stroke-width="1" stroke-linecap="butt" stroke-linejoin="miter" stroke-miterlimit="4" fill="#5B9BD5" fill-opacity="1"/><path d="M19.32 34.72 9.14 34.72 9.14 38 22.11 38C21 37.08 20.06 35.97 19.32 34.72Z" class="MsftOfcThm_Accent1_Fill_v2" stroke="none" stroke-width="1" stroke-linecap="butt" stroke-linejoin="miter" stroke-miterlimit="4" fill="#5B9BD5" fill-opacity="1"/><path d="M17.58 28.57 6.28 28.57 6.28 7.28 33.72 7.28 33.72 16.4C34.89 16.76 36 17.29 37 17.96L37 4 3 4 3 31.85 18.07 31.85C17.77 30.81 17.59 29.71 17.57 28.57L17.58 28.57Z" class="MsftOfcThm_Accent1_Fill_v2" stroke="none" stroke-width="1" stroke-linecap="butt" stroke-linejoin="miter" stroke-miterlimit="4" fill="#5B9BD5" fill-opacity="1"/><g><path d="M30.07 20.66C34.32 20.66 37.77 24.11 37.77 28.36 37.77 32.61 34.32 36.06 30.07 36.06 25.82 36.06 22.37 32.61 22.37 28.36 22.37 24.11 25.82 20.66 30.07 20.66M30.07 18.36C24.56 18.36 20.07 22.85 20.07 28.36 20.07 33.87 24.56 38.36 30.07 38.36 35.58 38.36 40.07 33.87 40.07 28.36 40.07 22.85 35.58 18.36 30.07 18.36" class="MsftOfcThm_Accent1_Fill_v2" stroke="none" stroke-width="1" stroke-linecap="butt" stroke-linejoin="miter" stroke-miterlimit="4" fill="#5B9BD5" fill-opacity="1"/></g></g></svg>